HIERARCHY
ROOT Hips
{
  OFFSET 57.8838 95.319 338.509
  CHANNELS 6 Xposition Yposition Zposition Zrotation Xrotation Yrotation
  JOINT LeftUpLeg
  {
    OFFSET 8.64259 1.95398 -2.38835
    CHANNELS 3 Zrotation Xrotation Yrotation
    JOINT LeftLeg
    {
      OFFSET 43.7702 0 0
      CHANNELS 3 Zrotation Xrotation Yrotation
      JOINT LeftFoot
      {
        OFFSET 40.6238 0 0
        CHANNELS 3 Zrotation Xrotation Yrotation
        JOINT LeftToeBase
        {
          OFFSET 12.7242 0 0
          CHANNELS 3 Zrotation Xrotation Yrotation
          End Site
          {
            OFFSET 0 0 0
          }
        }
      }
    }
  }
  JOINT RightUpLeg
  {
    OFFSET -8.2249 1.95398 -2.59336
    CHANNELS 3 Zrotation Xrotation Yrotation
    JOINT RightLeg
    {
      OFFSET 43.5653 0 0
      CHANNELS 3 Zrotation Xrotation Yrotation
      JOINT RightFoot
      {
        OFFSET 40.6238 0 0
        CHANNELS 3 Zrotation Xrotation Yrotation
        JOINT RightToeBase
        {
          OFFSET 12.7242 0 0
          CHANNELS 3 Zrotation Xrotation Yrotation
          End Site
          {
            OFFSET 0 0 0
          }
        }
      }
    }
  }
  JOINT Spine
  {
    OFFSET 0.165834 0.87714 6.61349
    CHANNELS 3 Zrotation Xrotation Yrotation
    JOINT Spine1
    {
      OFFSET 7.38963 1.71661e-005 0
      CHANNELS 3 Zrotation Xrotation Yrotation
      JOINT Spine2
      {
        OFFSET 11.9445 1.14441e-005 0
        CHANNELS 3 Zrotation Xrotation Yrotation
        JOINT Spine3
        {
          OFFSET 14.7254 4.19617e-005 0
          CHANNELS 3 Zrotation Xrotation Yrotation
          JOINT Spine4
          {
            OFFSET 10.9679 0 0
            CHANNELS 3 Zrotation Xrotation Yrotation
            JOINT RightShoulder
            {
              OFFSET 2.46616 -1.6653 3.69651
              CHANNELS 3 Zrotation Xrotation Yrotation
              JOINT RightArm
              {
                OFFSET 13.0012 0 0
                CHANNELS 3 Zrotation Xrotation Yrotation
                JOINT RightForeArm
                {
                  OFFSET 28.7848 1.62311e-005 0
                  CHANNELS 3 Zrotation Xrotation Yrotation
                  JOINT RightHand
                  {
                    OFFSET 26.5688 1.62095e-005 0
                    CHANNELS 3 Zrotation Xrotation Yrotation
                    End Site
                    {
                      OFFSET 0 0 0
                    }
                  }
                }
              }
            }
            JOINT LeftShoulder
            {
              OFFSET 2.38034 -1.29275 -3.7523
              CHANNELS 3 Zrotation Xrotation Yrotation
              JOINT LeftArm
              {
                OFFSET 16.3182 6.07031e-005 0
                CHANNELS 3 Zrotation Xrotation Yrotation
                JOINT LeftForeArm
                {
                  OFFSET 27.0901 0 0
                  CHANNELS 3 Zrotation Xrotation Yrotation
                  JOINT LeftHand
                  {
                    OFFSET 24.5451 1.51738e-005 0
                    CHANNELS 3 Zrotation Xrotation Yrotation
                    End Site
                    {
                      OFFSET 0 0 0
                    }
                  }
                }
              }
            }
            JOINT Neck
            {
              OFFSET 5.0226 -0.0266342 0
              CHANNELS 3 Zrotation Xrotation Yrotation
              JOINT Head
              {
                OFFSET 6.69364 2.86102e-005 0
                CHANNELS 3 Zrotation Xrotation Yrotation
                End Site
                {
                  OFFSET 0 0 0
                }
              }
            }
          }
        }
      }
    }
  }
}
MOTION
Frames:	10
Frame Time:	0.0416667
-330.969 94.7264 22.633 92.4996 3.3801 91.2307 -178.868 0.772489 88.5569 -8.5015 14.0702 1.76461 58.0077 2.7101 7.58545 36.7898 3.30465 2.86003 173.432 4.7772 92.9594 -18.2543 2.84297 -0.417171 67.8422 -0.953069 8.93974 26.451 2.80309 3.27047 -0.232248 7.31877 -90.2684 12.235 -0.588719 -0.469775 0.564094 -0.608852 -0.443415 -21.971 -0.420313 -0.624986 -1.95835 -0.420326 -0.624996 96.0875 -51.5052 -91.2605 32.0385 -11.4282 -7.69965 -0.334017 -18.3851 -16.3392 -19.9353 -1.91448 5.9401 -78.6782 -50.2657 95.8174 -41.0341 -21.7597 -15.7882 12.5014 70.1344 -12.1644 8.57661 -0.447548 -8.03858 7.37126 -1.32603 -12.8625 -8.1947 0.356687 21.3985 
-330.829 94.7358 22.7423 92.5475 3.30668 91.1256 -178.896 0.56154 88.4739 -8.43329 13.9988 1.8364 57.9846 2.61878 7.34373 37.0348 3.41266 2.6469 173.106 4.74337 92.7882 -18.5278 2.70856 -0.165099 68.1933 -1.2851 9.15351 25.9276 3.5635 2.27944 -0.170324 7.27125 -90.2482 12.3304 -0.456238 -0.443878 0.659468 -0.475336 -0.423379 -21.8754 -0.301753 -0.560476 -1.86272 -0.301737 -0.560475 95.7828 -51.4007 -91.7368 32.0812 -11.1819 -7.00807 -0.0926067 -16.4677 -16.0216 -17.6229 -1.59044 5.36458 -78.2858 -50.2803 96.4079 -40.9004 -21.5443 -15.2318 7.43321 66.6921 -7.19984 4.11747 -0.369503 -10.2152 13.1768 -0.641936 -8.43806 -17.7752 -0.324443 12.8424 
-330.605 94.8202 22.9759 92.6155 3.79193 91.022 -179.276 0.761845 88.6186 -9.93694 19.3828 2.32874 56.9954 1.22611 8.74579 38.2117 4.0398 6.24448 172.687 4.45357 92.6789 -18.5022 3.68007 0.0989745 68.4078 -1.37521 10.1212 26.0196 3.43554 2.3762 -0.15718 7.36937 -90.2956 12.134 -0.452264 -0.540363 0.462986 -0.475612 -0.519935 -22.0715 -0.268944 -0.651302 -2.0589 -0.26895 -0.651301 96.4642 -50.2411 -90.8242 32.4732 -11.1788 -7.65939 -0.343651 -16.9006 -16.5173 -17.8629 -1.72095 6.0411 -80.1885 -53.57 93.686 -37.1398 -22.4802 -14.1596 8.19271 65.5411 -8.68844 3.17306 -0.416253 -11.1391 13.0945 -0.667079 -6.81341 -16.3642 -0.451433 12.0791 
-330.253 94.6761 23.3547 92.1847 3.91336 91.045 -179.02 0.617988 88.7672 -8.57423 15.2449 2.12038 57.9293 2.35676 7.40182 37.7774 3.7378 3.08049 173.159 4.82734 93.2226 -18.7783 4.32636 -0.214983 68.6127 -1.91833 9.53725 26.1537 3.24414 2.58221 -0.183802 7.40359 -90.2654 12.0655 -0.490705 -0.475716 0.394556 -0.511175 -0.453659 -22.1403 -0.325024 -0.601192 -2.12764 -0.325055 -0.601192 96.3046 -50.4271 -91.0515 32.2603 -11.5699 -8.02384 -0.315285 -16.5352 -16.5146 -17.3368 -1.64166 5.86329 -80.6277 -53.5829 93.0411 -36.93 -23.2351 -13.4768 10.8971 67.3417 -11.3044 3.23736 -0.335679 -9.37107 14.1918 -0.616736 -6.59644 -16.9883 -0.343527 11.2384 
-329.857 94.6338 23.7947 91.878 4.71699 90.7795 -179.109 0.7599 88.8175 -8.61087 15.7297 2.2119 58.0375 2.43734 6.98646 37.7421 3.75307 4.03184 172.688 4.9517 93.1376 -19.1216 5.92847 0.0545915 69.4005 -2.40683 10.7245 26.2285 3.1275 2.80516 -0.298705 7.44201 -90.2094 11.9888 -0.692612 -0.342448 0.318005 -0.70698 -0.311643 -22.2178 -0.557689 -0.534778 -2.20519 -0.557651 -0.534775 95.7815 -50.8272 -91.8086 32.1656 -11.8825 -7.95652 -0.302703 -16.8004 -16.2211 -16.6776 -1.59874 6.00773 -80.1049 -52.674 93.7638 -37.1385 -22.2545 -13.8238 7.96415 65.5628 -8.79407 4.65038 -0.421392 -9.76499 13.6916 -0.297634 -6.78146 -15.9301 0.0578975 11.5253 
-329.29 94.4872 24.4773 91.4318 4.77581 90.7905 -179.157 1.19194 89.0621 -9.31405 16.3293 2.49694 58.3969 2.44677 6.89271 38.9499 4.33108 4.99117 173.085 5.4624 93.7859 -19.878 5.68124 -0.0836768 69.0634 -3.0245 9.66954 27.6963 1.26311 2.87063 -0.277819 7.49523 -90.2598 11.8823 -0.674725 -0.44633 0.211453 -0.693714 -0.416206 -22.324 -0.509378 -0.628475 -2.31135 -0.509429 -0.628493 95.8495 -50.616 -91.7295 32.2345 -11.7783 -7.98946 0.25383 -16.6497 -15.5697 -17.8009 -1.7766 6.47411 -80.4188 -53.6664 93.3482 -36.0555 -21.1011 -15.5838 3.49017 69.3175 -4.31055 3.46923 -0.426314 -11.0079 13.5221 0.0785646 -5.62817 -15.6663 0.193485 11.0947 
-328.331 94.2253 25.3839 91.5123 3.98928 90.8932 -178.85 1.03953 89.6879 -10.9155 15.702 2.73408 59.1999 3.08562 7.05104 40.4061 5.04128 5.73079 173.015 5.4829 94.3646 -21.1502 4.52338 0.254717 68.8483 -4.18988 8.17781 28.9183 -0.288386 3.01319 -0.244193 7.59211 -90.3016 11.6879 -0.627091 -0.535468 0.0170554 -0.65005 -0.50735 -22.5179 -0.437176 -0.699177 -2.50524 -0.437186 -0.699177 95.6049 -51.0511 -92.0505 31.8278 -11.2355 -8.17233 0.841814 -16.7646 -14.2983 -18.1372 -1.7222 5.87528 -80.2926 -52.9817 93.5016 -37.323 -20.7781 -18.1869 0.540345 72.8105 -0.215756 1.93443 -0.320976 -10.3449 12.4442 0.651173 -6.70642 -14.9325 0.782282 13.4039 
-326.792 93.865 26.5537 91.4499 2.63037 90.6964 -178.365 1.21375 90.028 -12.8552 13.3855 2.69084 59.8012 4.59369 6.99876 42.614 6.07744 5.88067 173.482 5.10158 95.0871 -22.2746 3.82853 -0.131804 69.8523 -5.61162 7.69329 29.3831 -0.864985 2.60646 -0.214559 7.59498 -90.3095 11.6822 -0.571892 -0.556982 0.0113128 -0.595811 -0.531288 -22.5234 -0.378063 -0.703105 -2.51075 -0.378036 -0.703104 96.0031 -51.2503 -91.4185 31.8594 -11.301 -7.47128 0.631849 -17.0081 -14.6353 -17.7303 -1.69141 5.93697 -80.2581 -53.1712 93.5606 -36.9797 -20.2815 -18.156 1.7128 68.7015 -2.64219 3.77997 -0.241186 -7.17331 12.4583 1.13116 -8.03534 -16.0313 1.23406 15.1813 
-325.032 93.0453 27.5868 91.4595 1.50661 90.3501 -179.05 3.12131 90.0265 -18.8309 12.0235 2.45644 58.7446 6.51349 8.39326 48.5655 9.29048 8.67162 172.562 5.16442 94.8439 -25.3738 2.19223 0.538202 73.0003 -7.44485 7.61045 29.4561 -0.950451 2.25729 -0.180333 7.59022 -90.3067 11.6919 -0.502521 -0.558761 0.0209758 -0.526643 -0.536112 -22.5136 -0.311374 -0.683959 -2.50093 -0.31138 -0.683959 95.9625 -51.4509 -91.4569 31.8899 -10.951 -6.79953 0.753004 -17.3579 -14.3235 -17.8343 -1.70213 5.94194 -79.8904 -52.2569 94.0643 -36.4211 -18.5394 -16.0477 6.85812 61.5403 -10.8496 3.12636 -0.321059 -9.2917 13.5591 1.68729 -7.94324 -17.7149 1.67628 14.6905 
-323.045 91.8737 28.5374 92.7384 0.732789 89.9248 -179.144 10.8972 89.5515 -38.2802 8.27923 3.29394 58.8329 5.21346 4.66868 50.7322 11.2559 13.8846 171.824 4.10886 94.5204 -29.0958 0.715009 0.843733 76.2652 -9.02225 7.06211 30.3235 -2.06065 2.41678 -0.0711705 7.76413 -90.3367 11.3444 -0.298493 -0.640201 -0.326663 -0.326385 -0.626449 -22.8607 -0.0923259 -0.700318 -2.84802 -0.0923187 -0.700318 95.1873 -51.6039 -92.6161 31.2364 -11.605 -6.63197 1.3161 -17.0167 -13.4711 -18.0793 -1.74302 6.05178 -78.3991 -50.8821 96.2468 -37.8297 -17.431 -15.1078 14.5086 60.4652 -20.0697 6.93907 -0.433215 -8.55327 12.4922 1.93205 -8.37096 -15.2703 2.15723 15.6118 
